<?xml version="1.0" standalone="no"?>
<!DOCTYPE svg PUBLIC "-//W3C//DTD SVG 20010904//EN"
 "http://www.w3.org/TR/2001/REC-SVG-20010904/DTD/svg10.dtd">
<svg version="1.0" xmlns="http://www.w3.org/2000/svg"
 width="500.000000pt" height="500.000000pt" viewBox="0 0 500.000000 500.000000"
 preserveAspectRatio="xMidYMid meet">

<g transform="translate(0.000000,500.000000) scale(0.100000,-0.100000)"
fill="#000000" stroke="none">
<path d="M2314 3678 c-98 -145 -243 -357 -323 -473 -79 -115 -158 -232 -174
-259 -121 -206 -151 -484 -75 -716 41 -128 48 -139 418 -680 73 -107 178 -261
233 -342 55 -82 104 -148 108 -148 14 0 80 116 96 169 17 61 13 139 -12 198
-8 19 -88 141 -177 272 -411 599 -405 588 -415 766 -6 118 11 206 58 298 28
55 316 486 412 615 21 30 43 50 47 45 4 -4 45 -64 90 -133 46 -69 137 -203
203 -299 134 -195 170 -262 192 -353 39 -167 -5 -380 -103 -497 l-28 -33 -136
198 c-74 110 -171 252 -214 316 -44 65 -83 118 -87 118 -17 0 -70 -66 -93
-115 -26 -56 -32 -142 -13 -209 14 -52 529 -816 549 -816 5 0 18 16 30 35 12
19 73 110 136 202 170 247 210 326 245 488 19 86 17 294 -4 378 -41 164 -63
201 -461 782 -87 127 -192 281 -232 343 -41 61 -79 112 -84 112 -5 0 -89 -118
-186 -262z"/>
</g>
</svg>
